<svg xmlns="http://www.w3.org/2000/svg" width="124.498" height="124.498" viewBox="0 0 124.498 124.498">
  <g id="edit" transform="translate(-464.623 -284.624)">
    <g id="edit_black_24dp" transform="translate(464.623 284.624)">
      <path id="Path_304" data-name="Path 304" d="M0,0H124.5V124.5H0Z" fill="none"/>
      <path id="Path_305" data-name="Path 305" d="M5,56.018V60.79H9.772l47-47L52,9.02Z" transform="translate(20.937 37.771)" fill="#f2dc8a" opacity="0.3"/>
      <path id="Path_306" data-name="Path 306" d="M94.869,23.957a5.166,5.166,0,0,0,0-7.314L82.731,4.5a5.2,5.2,0,0,0-7.314,0L65.923,14,85.376,33.45l9.493-9.493ZM3,76.921V96.374H22.453L79.826,39,60.373,19.548ZM18.147,86H13.375V81.226l47-47L65.145,39Z" transform="translate(12.562 12.562)" fill="#f2dc8a"/>
    </g>
  </g>
</svg>
