<svg id="home-landing" xmlns="http://www.w3.org/2000/svg" width="1036.9" height="660" viewBox="0 0 1036.9 660">
  <rect id="Rectangle_314" data-name="Rectangle 314" width="785.452" height="2.785" transform="translate(45.029 494.17)" fill="#3f3d56"/>
  <rect id="Rectangle_315" data-name="Rectangle 315" width="899.868" height="437.904" fill="#3f3d56"/>
  <path id="Path_231" data-name="Path 231" d="M981.419,153.685v-12.03h-27.67V120H941.718v21.655H121.251V120H109.22v21.655H81.551v12.03h27.67V524.219H81.551v12.03h27.67V557.9h12.03V536.249H941.718V557.9h12.03V536.249h27.67v-12.03H953.749V153.685Zm-39.7,370.534H121.251V153.685H941.718Z" transform="translate(-81.551 -120)" opacity="0.1"/>
  <rect id="Rectangle_316" data-name="Rectangle 316" width="141.887" height="134.967" transform="translate(397.739 57.745)" fill="#d0cde1"/>
  <rect id="Rectangle_317" data-name="Rectangle 317" width="109.64" height="83.842" transform="translate(413.862 73.869)" fill="#08223b"/>
  <rect id="Rectangle_318" data-name="Rectangle 318" width="38.437" height="38.437" transform="translate(437.988 87.648)" fill="#f2f2f2"/>
  <path id="Path_232" data-name="Path 232" d="M534.253,217.259v46.674h46.674V217.259ZM578.9,261.908H536.278V219.284H578.9Z" transform="translate(-81.551 -120)" fill="#3f3d56"/>
  <rect id="Rectangle_319" data-name="Rectangle 319" width="59.637" height="3.139" transform="translate(413.754 166.033)" fill="#f2f2f2"/>
  <circle id="Ellipse_59" data-name="Ellipse 59" cx="6.278" cy="6.278" r="6.278" transform="translate(462.404 59.315)" fill="#3f3d56"/>
  <rect id="Rectangle_320" data-name="Rectangle 320" width="141.887" height="134.967" transform="translate(451.252 252.409)" fill="#d0cde1"/>
  <rect id="Rectangle_321" data-name="Rectangle 321" width="109.64" height="83.842" transform="translate(467.375 268.532)" fill="#08223b"/>
  <rect id="Rectangle_322" data-name="Rectangle 322" width="59.637" height="3.139" transform="translate(467.266 362.266)" fill="#f2f2f2"/>
  <rect id="Rectangle_323" data-name="Rectangle 323" width="59.637" height="3.139" transform="translate(467.266 371.682)" fill="#f2f2f2"/>
  <circle id="Ellipse_60" data-name="Ellipse 60" cx="12.555" cy="12.555" r="12.555" transform="translate(474.329 297.921)" fill="#3f3d56"/>
  <circle id="Ellipse_61" data-name="Ellipse 61" cx="12.555" cy="12.555" r="12.555" transform="translate(509.64 297.921)" fill="#f2f2f2"/>
  <circle id="Ellipse_62" data-name="Ellipse 62" cx="12.555" cy="12.555" r="12.555" transform="translate(544.951 297.921)" fill="#ff6584"/>
  <circle id="Ellipse_63" data-name="Ellipse 63" cx="6.278" cy="6.278" r="6.278" transform="translate(515.917 253.978)" fill="#3f3d56"/>
  <rect id="Rectangle_324" data-name="Rectangle 324" width="141.887" height="134.967" transform="translate(234.102 210.238)" fill="#d0cde1"/>
  <rect id="Rectangle_325" data-name="Rectangle 325" width="109.64" height="83.842" transform="translate(250.225 226.362)" fill="#08223b"/>
  <circle id="Ellipse_64" data-name="Ellipse 64" cx="26.619" cy="26.619" r="26.619" transform="translate(271.126 251.463)" fill="#f2f2f2"/>
  <path id="Path_233" data-name="Path 233" d="M387.141,418.614a33.374,33.374,0,1,1,33.374-33.374,33.374,33.374,0,0,1-33.374,33.374Zm0-65.534a32.16,32.16,0,1,0,32.16,32.16,32.16,32.16,0,0,0-32.16-32.16Z" transform="translate(-81.551 -120)" fill="#3f3d56"/>
  <rect id="Rectangle_326" data-name="Rectangle 326" width="59.637" height="3.139" transform="translate(250.117 327.943)" fill="#f2f2f2"/>
  <rect id="Rectangle_327" data-name="Rectangle 327" width="83.177" height="3.139" transform="translate(250.117 318.526)" fill="#f2f2f2"/>
  <circle id="Ellipse_65" data-name="Ellipse 65" cx="6.278" cy="6.278" r="6.278" transform="translate(298.767 211.807)" fill="#3f3d56"/>
  <rect id="Rectangle_328" data-name="Rectangle 328" width="141.887" height="134.967" transform="translate(78.153 55.34)" fill="#d0cde1"/>
  <rect id="Rectangle_329" data-name="Rectangle 329" width="109.64" height="83.842" transform="translate(94.277 71.463)" fill="#08223b"/>
  <rect id="Rectangle_330" data-name="Rectangle 330" width="23.587" height="6.99" transform="translate(137.303 137.099)" fill="#3f3d56"/>
  <rect id="Rectangle_331" data-name="Rectangle 331" width="80.617" height="2.996" transform="translate(108.788 82.679)" fill="#3f3d56"/>
  <rect id="Rectangle_332" data-name="Rectangle 332" width="80.617" height="2.996" transform="translate(108.788 92.165)" fill="#3f3d56"/>
  <rect id="Rectangle_333" data-name="Rectangle 333" width="80.617" height="2.996" transform="translate(108.788 101.651)" fill="#3f3d56"/>
  <rect id="Rectangle_334" data-name="Rectangle 334" width="80.617" height="2.996" transform="translate(108.788 111.137)" fill="#3f3d56"/>
  <rect id="Rectangle_335" data-name="Rectangle 335" width="80.617" height="2.996" transform="translate(108.788 120.623)" fill="#3f3d56"/>
  <rect id="Rectangle_336" data-name="Rectangle 336" width="59.637" height="3.139" transform="translate(94.168 163.627)" fill="#f2f2f2"/>
  <rect id="Rectangle_337" data-name="Rectangle 337" width="83.177" height="3.139" transform="translate(94.168 171.474)" fill="#f2f2f2"/>
  <circle id="Ellipse_66" data-name="Ellipse 66" cx="6.278" cy="6.278" r="6.278" transform="translate(142.819 56.909)" fill="#3f3d56"/>
  <path id="Path_234" data-name="Path 234" d="M736.341,263.51,839.1,271.06l29.06,2.135-1.8-1.8,5.457,78.941,2.729,39.47c.11,1.595.223,3.189.331,4.784.089,1.326.454,2.6-1.116,2.931-3.123.651-6.375.922-9.539,1.321q-9.647,1.217-19.337,2.049a490.067,490.067,0,0,1-77.7.487q-9.7-.71-19.361-1.808c-2.4-.272-5.37-.374-6.245-3.061-.9-2.77-1.057-5.919-1.465-8.794q-2.725-19.208-3.714-38.614a443.058,443.058,0,0,1,2.73-77.258q.581-4.707,1.269-9.4c.331-2.272-3.146-3.253-3.48-.959a446.738,446.738,0,0,0-4.459,80q.7,20.072,3.214,40.026.636,5.04,1.381,10.065c.4,2.666.494,5.809,2.08,8.1,1.531,2.21,4.1,2.919,6.627,3.256,3.215.429,6.452.736,9.679,1.051a489.831,489.831,0,0,0,80.634,1.193q10.142-.687,20.25-1.794,4.979-.546,9.946-1.194,2.431-.317,4.86-.656a22.371,22.371,0,0,0,4.467-.778c3.041-1.1,3.04-4.029,2.851-6.763l-.7-10.167-1.406-20.333-5.664-81.931-.7-10.167a1.858,1.858,0,0,0-1.8-1.8L765.4,262.036l-29.06-2.135c-2.317-.17-2.306,3.44,0,3.609Z" transform="translate(-81.551 -120)" fill="#d0cde1"/>
  <path id="Path_235" data-name="Path 235" d="M780.378,306.118c.519-1.378-.786,1.59-.131.277.174-.349.337-.7.521-1.045a19.933,19.933,0,0,1,1.22-1.982c.443-.634,1.116-.879-.194.224a9.444,9.444,0,0,0,.76-.881,22.2,22.2,0,0,1,1.952-1.892c.495-.425,1.431-.786-.244.154.331-.186.639-.464.955-.677q.974-.655,2.008-1.212.517-.279,1.047-.532c.6-.287,1.6-.385-.29.1.811-.208,1.6-.591,2.407-.822q1.034-.294,2.091-.494c.629-.119,1.772-.029-.378.02.384-.009.778-.083,1.162-.109a21.942,21.942,0,0,1,2.329-.035c.388.015.773.053,1.161.077,1.287.077-1.947-.357,0,.014a19.661,19.661,0,0,1,2.259.57,8.61,8.61,0,0,0,1.105.388l-1-.43q.367.16.728.334a20.085,20.085,0,0,1,2.08,1.163c.334.213.653.445.98.668,1.027.7-1.377-1.176.08.1q.741.65,1.422,1.365.409.429.795.879c.433.5.764,1.426-.139-.226.827,1.511,1.86,2.882,2.639,4.441.664,1.329-.605-1.651-.1-.252.136.377.282.75.411,1.13q.385,1.141.665,2.314c.187.783.278,1.583.45,2.366-.473-2.157-.127-.909-.081-.323q.064.8.077,1.6.016,1-.049,2c-.025.391-.113.806-.108,1.2-.027-2.025.147-1.016.021-.336a22.673,22.673,0,0,1-.56,2.334q-.172.577-.374,1.143-.18.5-.38,1,.582-1.355.093-.258c-1.993,3.987-4.477,7.7-6.437,11.7a53.4,53.4,0,0,0-4.68,32.162,7.222,7.222,0,0,0,3.317,4.314,7.371,7.371,0,0,0,5.562.728c4.069-1.317,5.668-4.869,5.041-8.879-.221-1.413.116,1.26-.029-.163-.062-.61-.124-1.219-.167-1.831q-.129-1.834-.105-3.674.02-1.576.152-3.148a9.327,9.327,0,0,1,.19-1.829s-.232,1.451-.075.618c.065-.344.111-.692.173-1.036a44.584,44.584,0,0,1,1.792-6.854c.173-.5.363-.986.545-1.478.482-1.3-.5,1.044.081-.215.52-1.123,1.057-2.231,1.649-3.318,2.485-4.565,5.3-8.842,7.106-13.752a28.855,28.855,0,0,0,1.6-12.03c-.67-8.419-4.239-16.96-10.892-22.411a28.408,28.408,0,0,0-25.1-5.719,30.007,30.007,0,0,0-21.041,18.62c-1.333,3.54,1.479,8.068,5.041,8.879,4.106.935,7.452-1.251,8.879-5.041Z" transform="translate(-81.551 -120)" fill="#d0cde1"/>
  <path id="Path_236" data-name="Path 236" d="M805.6,392.116a6,6,0,1,0-6-6,6.068,6.068,0,0,0,6,6Z" transform="translate(-81.551 -120)" fill="#d0cde1"/>
  <rect id="Rectangle_338" data-name="Rectangle 338" width="33.685" height="33.685" transform="translate(39.79 481.99)" fill="#08223b"/>
  <path id="Path_237" data-name="Path 237" d="M175.477,616.426h-40.9v-40.9h40.9Zm-39.125-1.778H173.7V577.3H136.352Z" transform="translate(-81.551 -120)" fill="#3f3d56"/>
  <path id="Path_238" data-name="Path 238" d="M905.026,420.156l-4.812,14.436s-30.076,34.888-8.421,39.7S915.853,437,915.853,437l6.015-12.03Z" transform="translate(-81.551 -120)" fill="#bf844f"/>
  <path id="Path_239" data-name="Path 239" d="M938.711,245.717s-7.218-1.2-9.624,27.67-3.609,79.4-3.609,79.4l-27.67,70.979L932.7,434.593l16.842-80.6Z" transform="translate(-81.551 -120)" fill="#575a89"/>
  <path id="Path_240" data-name="Path 240" d="M841.521,555.2l-3.609,22.858h32.482l-1.2-22.858Z" fill="#bf844f"/>
  <path id="Path_241" data-name="Path 241" d="M946.185,580.463l-2.407,31.279,21.655,2.406V578.057Z" fill="#bf844f"/>
  <path id="Path_242" data-name="Path 242" d="M936.3,376.847l-27.67,158.8,7.218,144.364h37.294V548.881l36.091-67.37,28.872,84.212,7.218,140.755,40.9-7.218-9.621-137.146s-7.218-182.861-14.436-185.267S936.3,376.847,936.3,376.847Z" transform="translate(-81.551 -120)" fill="#2f2e41"/>
  <path id="Path_243" data-name="Path 243" d="M926.681,690.839s0-12.03-9.624-4.812S895.4,706.478,895.4,706.478s-45.715,25.264-13.233,28.873S935.1,718.508,935.1,718.508l3.609,3.609s19.248-3.609,19.248-8.421a92.885,92.885,0,0,0-1.2-12.03s-2.53-20.406-5.476-16.218S931.493,698.057,926.681,690.839Z" transform="translate(-81.551 -120)" fill="#2f2e41"/>
  <path id="Path_244" data-name="Path 244" d="M1048.19,724.523s-21.655-10.827-26.467-1.2-8.421,28.873-8.421,28.873-15.643,30.076,12.028,27.67,26.467-18.045,26.467-21.655-1.2-12.03,0-15.639S1048.19,724.523,1048.19,724.523Z" transform="translate(-81.551 -120)" fill="#2f2e41"/>
  <path id="Path_257" data-name="Path 257" d="M33.685,0A33.685,33.685,0,1,1,0,33.685,33.685,33.685,0,0,1,33.685,0Z" transform="translate(885.431 10.827)" fill="#bf844f"/>
  <path id="Path_245" data-name="Path 245" d="M896.86,60.753l-1.2,43.309,43.309-3.609v-39.7Z" fill="#bf844f"/>
  <path id="Path_246" data-name="Path 246" d="M1022.92,198.8s-20.451,13.233-26.467,15.639-19.248-9.624-19.248-9.624-3.609,2.406-3.609,4.812-2.406,12.03-2.406,12.03L942.32,316.7l2.406,67.37s87.821,8.421,97.446-2.406-4.812-166.018-4.812-166.018Z" transform="translate(-81.551 -120)" fill="#d0cde1"/>
  <path id="Path_247" data-name="Path 247" d="M1016.91,224.062s-32.482,12.03-43.309,1.2C973.6,225.265,989.238,228.874,1016.91,224.062Z" transform="translate(-81.551 -120)" opacity="0.1"/>
  <path id="Path_248" data-name="Path 248" d="M1102.32,485.12c-13.233,8.421-56.542,19.249-56.542,19.249s-4.728-101.837-21.655-117.9c-16.83-15.988-44.308-131.251-19.6-151.293a3.692,3.692,0,0,1,.349-.289l15.639-36.091s2.406-3.609,7.218,1.2a131.371,131.371,0,0,1,10.827,13.233l.686.277,33,12.957-13.233,58.949S1115.56,476.7,1102.32,485.12Z" transform="translate(-81.551 -120)" fill="#575a89"/>
  <path id="Path_249" data-name="Path 249" d="M1039.25,213.512l-9.107,33.408-25.613-11.742a3.709,3.709,0,0,1,.349-.289l15.639-36.091s2.406-3.609,7.218,1.2a131.36,131.36,0,0,1,10.827,13.233Z" transform="translate(-81.551 -120)" opacity="0.1"/>
  <path id="Path_250" data-name="Path 250" d="M976.606,204.212,973,245.115l-.192,1.865-27.477,261.6s-24.061-8.421-32.482-18.046S932.095,373.84,932.095,373.84L934.5,239.1s21.342-15.026,30.064-23.279c2.045-1.925,3.393-3.477,3.621-4.391C969.388,206.618,976.606,204.212,976.606,204.212Z" transform="translate(-81.551 -120)" fill="#575a89"/>
  <path id="Path_251" data-name="Path 251" d="M976.606,204.212,973,245.115l-.192,1.865-17.252-2.466,9.011-28.692c2.045-1.925,3.393-3.477,3.621-4.391C969.388,206.618,976.606,204.212,976.606,204.212Z" transform="translate(-81.551 -120)" opacity="0.1"/>
  <path id="Path_252" data-name="Path 252" d="M1040.97,406.923l-13.233,12.03s6.015,25.264,13.233,26.467c0,0,4.812-7.218,6.015-13.233s12.03-12.03,12.03-12.03Z" transform="translate(-81.551 -120)" fill="#bf844f"/>
  <path id="Path_253" data-name="Path 253" d="M1056.61,224.062l15.639,2.406s51.73,87.821,45.715,119.1-54.136,85.415-54.136,85.415l-30.076-24.061,44.512-60.152L1055.41,274.59Z" transform="translate(-81.551 -120)" fill="#575a89"/>
  <path id="Path_254" data-name="Path 254" d="M966.906,168.3s0-29.707,7.219-36.458h8.663s10.107-14.853,23.1-9.452,34.651,14.853,33.207,29.707-5.947,24.45-5.947,24.45-2.406,0-7.769-8.075c-7.166-10.79,9.385-7.427-12.272-11.477s-34.651-9.452-37.538-4.051S966.906,168.3,966.906,168.3Z" transform="translate(-81.551 -120)" fill="#2f2e41"/>
  <path id="Path_255" data-name="Path 255" d="M982.645,133.854s1.154-8.682,5.9-10.551Z" transform="translate(-81.551 -120)" fill="#2f2e41"/>
  <path id="Path_256" data-name="Path 256" d="M982.624,135.64s-2.41-8.42,1.2-12.031Z" transform="translate(-81.551 -120)" fill="#2f2e41"/>
</svg>
