<svg xmlns="http://www.w3.org/2000/svg" width="528" height="528" viewBox="0 0 528 528">
  <g id="stu" transform="translate(-1434 -916)">
    <rect id="Rectangle_346" data-name="Rectangle 346" width="528" height="528" transform="translate(1434 916)" fill="#fff"/>
    <g id="stu-2" data-name="stu" transform="translate(1363.75 -237.332)">
      <g id="Group_2427" data-name="Group 2427" transform="translate(119.25 1223.332)">
        <path id="Path_289" data-name="Path 289" d="M14772.382,7111.332c-11.648.757-219.134,118.8-219.134,118.8l213.652,126.363,213.657-126.363Z" transform="translate(-14553.248 -7111.332)" fill="none" stroke="#09243f" stroke-linecap="round" stroke-linejoin="round" stroke-width="16"/>
        <path id="Path_290" data-name="Path 290" d="M14595.508,7197.007c2.057,15.111,3.424,120.287,4.795,122.558s75.155,65.453,139.7,62.046,118.471-75.667,118.471-75.667v-113.5l-132.854,84.745Z" transform="translate(-14513.332 -6994.599)" fill="none" stroke="#09243f" stroke-linejoin="round" stroke-width="16"/>
        <path id="Path_291" data-name="Path 291" d="M14768.265,7172.513,14765,7317.4l-24.649,24.969,24.649,31.783,28.764-28.755-28.764-28" transform="translate(-14364.4 -7036.677)" fill="none" stroke="#09243f" stroke-linejoin="round" stroke-width="16"/>
      </g>
    </g>
  </g>
</svg>
